<?xml version="1.0" encoding="UTF-8"?>
<!DOCTYPE svg PUBLIC "-//W3C//DTD SVG 1.1//EN" "http://www.w3.org/Graphics/SVG/1.1/DTD/svg11.dtd">
<svg version="1.2" width="110mm" height="70mm" viewBox="0 0 11000 7000" preserveAspectRatio="xMidYMid" fill-rule="evenodd" stroke-width="28.222" stroke-linejoin="round" xmlns="http://www.w3.org/2000/svg" xmlns:ooo="http://xml.openoffice.org/svg/export" xmlns:xlink="http://www.w3.org/1999/xlink" xmlns:presentation="http://sun.com/xmlns/staroffice/presentation" xmlns:smil="http://www.w3.org/2001/SMIL20/" xmlns:anim="urn:oasis:names:tc:opendocument:xmlns:animation:1.0" xml:space="preserve">
 <defs class="ClipPathGroup">
  <clipPath id="presentation_clip_path" clipPathUnits="userSpaceOnUse">
   <rect x="0" y="0" width="11000" height="7000"/>
  </clipPath>
  <clipPath id="presentation_clip_path_shrink" clipPathUnits="userSpaceOnUse">
   <rect x="11" y="7" width="10978" height="6986"/>
  </clipPath>
 </defs>
 <defs class="TextShapeIndex">
  <g ooo:slide="id1" ooo:id-list="id3 id4 id5 id6 id7 id8 id9"/>
 </defs>
 <defs class="EmbeddedBulletChars">
  <g id="bullet-char-template-57356" transform="scale(0.00048828125,-0.00048828125)">
   <path d="M 580,1141 L 1163,571 580,0 -4,571 580,1141 Z"/>
  </g>
  <g id="bullet-char-template-57354" transform="scale(0.00048828125,-0.00048828125)">
   <path d="M 8,1128 L 1137,1128 1137,0 8,0 8,1128 Z"/>
  </g>
  <g id="bullet-char-template-10146" transform="scale(0.00048828125,-0.00048828125)">
   <path d="M 174,0 L 602,739 174,1481 1456,739 174,0 Z M 1358,739 L 309,1346 659,739 1358,739 Z"/>
  </g>
  <g id="bullet-char-template-10132" transform="scale(0.00048828125,-0.00048828125)">
   <path d="M 2015,739 L 1276,0 717,0 1260,543 174,543 174,936 1260,936 717,1481 1274,1481 2015,739 Z"/>
  </g>
  <g id="bullet-char-template-10007" transform="scale(0.00048828125,-0.00048828125)">
   <path d="M 0,-2 C -7,14 -16,27 -25,37 L 356,567 C 262,823 215,952 215,954 215,979 228,992 255,992 264,992 276,990 289,987 310,991 331,999 354,1012 L 381,999 492,748 772,1049 836,1024 860,1049 C 881,1039 901,1025 922,1006 886,937 835,863 770,784 769,783 710,716 594,584 L 774,223 C 774,196 753,168 711,139 L 727,119 C 717,90 699,76 672,76 641,76 570,178 457,381 L 164,-76 C 142,-110 111,-127 72,-127 30,-127 9,-110 8,-76 1,-67 -2,-52 -2,-32 -2,-23 -1,-13 0,-2 Z"/>
  </g>
  <g id="bullet-char-template-10004" transform="scale(0.00048828125,-0.00048828125)">
   <path d="M 285,-33 C 182,-33 111,30 74,156 52,228 41,333 41,471 41,549 55,616 82,672 116,743 169,778 240,778 293,778 328,747 346,684 L 369,508 C 377,444 397,411 428,410 L 1163,1116 C 1174,1127 1196,1133 1229,1133 1271,1133 1292,1118 1292,1087 L 1292,965 C 1292,929 1282,901 1262,881 L 442,47 C 390,-6 338,-33 285,-33 Z"/>
  </g>
  <g id="bullet-char-template-9679" transform="scale(0.00048828125,-0.00048828125)">
   <path d="M 813,0 C 632,0 489,54 383,161 276,268 223,411 223,592 223,773 276,916 383,1023 489,1130 632,1184 813,1184 992,1184 1136,1130 1245,1023 1353,916 1407,772 1407,592 1407,412 1353,268 1245,161 1136,54 992,0 813,0 Z"/>
  </g>
  <g id="bullet-char-template-8226" transform="scale(0.00048828125,-0.00048828125)">
   <path d="M 346,457 C 273,457 209,483 155,535 101,586 74,649 74,723 74,796 101,859 155,911 209,963 273,989 346,989 419,989 480,963 531,910 582,859 608,796 608,723 608,648 583,586 532,535 482,483 420,457 346,457 Z"/>
  </g>
  <g id="bullet-char-template-8211" transform="scale(0.00048828125,-0.00048828125)">
   <path d="M -4,459 L 1135,459 1135,606 -4,606 -4,459 Z"/>
  </g>
  <g id="bullet-char-template-61548" transform="scale(0.00048828125,-0.00048828125)">
   <path d="M 173,740 C 173,903 231,1043 346,1159 462,1274 601,1332 765,1332 928,1332 1067,1274 1183,1159 1299,1043 1357,903 1357,740 1357,577 1299,437 1183,322 1067,206 928,148 765,148 601,148 462,206 346,322 231,437 173,577 173,740 Z"/>
  </g>
 </defs>
 <g>
  <g id="id2" class="Master_Slide">
   <g id="bg-id2" class="Background"/>
   <g id="bo-id2" class="BackgroundObjects"/>
  </g>
 </g>
 <g class="SlideGroup">
  <g>
   <g id="container-id1">
    <g id="id1" class="Slide" clip-path="url(#presentation_clip_path)">
     <g class="Page">
      <g class="com.sun.star.drawing.ClosedBezierShape">
       <g id="id3">
        <rect class="BoundingBox" stroke="none" fill="none" x="4606" y="150" width="6047" height="6647"/>
        <path fill="rgb(3,76,151)" stroke="none" d="M 4607,3473 C 4607,1641 6097,151 7928,151 8955,151 9908,615 10542,1423 L 10270,1637 C 9701,913 8848,497 7928,497 6287,497 4954,1832 4954,3473 4954,5113 6287,6448 7928,6448 8898,6448 9810,5973 10367,5178 L 10651,5377 C 10029,6265 9011,6795 7928,6795 6097,6795 4607,5304 4607,3473 Z"/>
       </g>
      </g>
      <g class="com.sun.star.drawing.ClosedBezierShape">
       <g id="id4">
        <rect class="BoundingBox" stroke="none" fill="none" x="411" y="2223" width="2036" height="2418"/>
        <path fill="rgb(3,76,151)" stroke="none" d="M 643,4410 L 923,4410 C 1256,4410 1488,4389 1617,4348 1799,4289 1942,4183 2046,4030 2150,3876 2202,3688 2202,3466 2202,3233 2145,3034 2033,2869 1920,2704 1763,2591 1561,2529 1410,2483 1161,2460 814,2460 L 643,2460 643,4410 Z M 412,4639 L 412,2224 913,2224 C 1274,2224 1536,2253 1699,2311 1934,2393 2117,2535 2249,2738 2380,2940 2446,3182 2446,3462 2446,3704 2394,3917 2290,4101 2185,4285 2049,4420 1882,4507 1715,4595 1481,4639 1180,4639 L 412,4639 Z"/>
       </g>
      </g>
      <g class="com.sun.star.drawing.PolyPolygonShape">
       <g id="id5">
        <rect class="BoundingBox" stroke="none" fill="none" x="2914" y="2223" width="243" height="2417"/>
        <path fill="rgb(3,76,151)" stroke="none" d="M 2915,2224 L 3156,2224 3156,4638 2915,4638 2915,2224 Z"/>
       </g>
      </g>
      <g class="com.sun.star.drawing.PolyPolygonShape">
       <g id="id6">
        <rect class="BoundingBox" stroke="none" fill="none" x="3704" y="2223" width="1173" height="2417"/>
        <path fill="rgb(3,76,151)" stroke="none" d="M 3705,2224 L 3946,2224 3946,4405 4876,4405 4876,4638 3705,4638 3705,2224 Z"/>
       </g>
      </g>
      <g class="com.sun.star.drawing.ClosedBezierShape">
       <g id="id7">
        <rect class="BoundingBox" stroke="none" fill="none" x="5534" y="2223" width="1547" height="2418"/>
        <path fill="rgb(227,30,45)" stroke="none" d="M 5776,2460 L 5776,3281 6191,3285 C 6352,3285 6471,3269 6549,3239 6626,3208 6686,3159 6730,3092 6773,3024 6795,2949 6795,2866 6795,2785 6773,2711 6729,2645 6685,2579 6627,2532 6556,2503 6485,2475 6366,2460 6201,2460 L 5776,2460 Z M 5535,2224 L 6015,2224 C 6283,2224 6465,2235 6560,2257 6703,2290 6820,2360 6910,2468 6999,2576 7044,2709 7044,2867 7044,2998 7013,3114 6951,3214 6890,3313 6801,3389 6686,3440 6571,3491 6413,3517 6210,3518 L 7079,4639 6780,4639 5912,3518 5776,3518 5776,4639 5535,4639 5535,2224 Z"/>
       </g>
      </g>
      <g class="com.sun.star.drawing.PolyPolygonShape">
       <g id="id8">
        <rect class="BoundingBox" stroke="none" fill="none" x="6797" y="2223" width="2329" height="2418"/>
        <path fill="rgb(227,30,45)" stroke="none" d="M 7967,2737 L 7553,3612 8379,3612 7967,2737 Z M 7997,2224 L 9124,4639 8863,4639 8483,3845 7443,3845 7066,4639 6797,4639 7938,2224 7997,2224 Z"/>
       </g>
      </g>
      <g class="com.sun.star.drawing.PolyPolygonShape">
       <g id="id9">
        <rect class="BoundingBox" stroke="none" fill="none" x="8896" y="2223" width="1756" height="3156"/>
        <path fill="rgb(227,30,45)" stroke="none" d="M 8896,2224 L 9137,2224 9137,3237 10367,3237 10367,2224 10650,2224 10650,5377 10367,5178 10367,3474 9137,3474 9137,4639 8896,4639 8896,2224 Z"/>
       </g>
      </g>
     </g>
    </g>
   </g>
  </g>
 </g>
</svg>